<?xml version="1.0" encoding="UTF-8"?>
<svg id="Laag_1" xmlns="http://www.w3.org/2000/svg" version="1.1" viewBox="0 0 410 360">
  <!-- Generator: Adobe Illustrator 29.6.1, SVG Export Plug-In . SVG Version: 2.1.1 Build 9)  -->
  <defs>
    <style>
      .st0 {
        fill: #ea4e51;
      }

      .st1 {
        fill: #e94e51;
      }

      .st2 {
        fill: #585857;
      }
    </style>
  </defs>
  <g>
    <path class="st2" d="M77.05,8.08c-.91-2.2-2.8-3.51-4.35-3.13.9.72,1.91,2.19,2.68,4.04.67,1.62,1,3.15,1,4.28,1.23-.92,1.55-3.09.67-5.19Z"/>
    <path class="st2" d="M66.09,3.15l6.19,22.89c.08.31-.33.5-.51.23-1.55-2.4-4.6-7.32-6.37-11.42-.76-1.76-.99-3.69-.66-5.57.28-1.59.6-3.81.7-6.05.02-.38.54-.44.64-.08Z"/>
    <path class="st2" d="M65.26,18.02v5.49c0,2.11,1.14,4.06,2.99,5.09.57.32,1.23.61,1.95.82.54.16,1.02-.4.8-.91-.8-1.85-2.54-5.71-5.07-10.64-.17-.32-.66-.21-.66.16Z"/>
    <path class="st2" d="M62.6,15.57l-2.17,9.25c-.29,1.23-.43,2.48-.43,3.74h0c0,.92.98,1.52,1.79,1.09h0c1.11-.59,1.78-1.76,1.73-3.01l-.42-11.03c-.01-.29-.43-.34-.5-.05Z"/>
    <path class="st2" d="M60.85,16.95c-1.55,1.74-5.33,4.97-13.39,7.35-.64.19-.7,1.07-.1,1.34,1.57.71,4.12,1.73,7.15,2.42,1.56.35,3.16-.48,3.8-1.95.83-1.91,2-4.92,3.07-8.86.09-.32-.31-.54-.53-.29Z"/>
    <path class="st2" d="M52.94,30.23c-1.7-.66-4.42-1.92-8.43-4.29-1.36-.8-2.95-1.11-4.51-.86-5.05.82-15.96,3.88-19.27,15.24-.33,1.13-.49,2.31-.49,3.49v.07c0,2.27.57,4.51,1.69,6.48,1.12,1.97,2.49,4.69,3.05,7.09.25,1.06,1.44,1.59,2.37,1.02,1.31-.8,3.03-2.08,4.58-3.99,1.9-2.33,2.97-5.23,3.21-8.22.34-4.22,2.77-13.58,17.65-15.14.48-.05.59-.71.14-.89Z"/>
    <path class="st2" d="M17.86,45.11c-.11.64-.23,1.4-.34,2.28-.55,4.33-.56,8.72-.05,13.06.2,1.68.38,3.71.37,5.51,0,.78.96,1.15,1.48.56l4.05-4.55c.47-.53.55-1.3.19-1.92-1.33-2.28-4.39-8.17-5.05-14.9-.04-.39-.58-.43-.65-.04Z"/>
    <path class="st2" d="M26.56,61.88c.23-.42-.31-.84-.65-.51-3.86,3.73-11.95,12.82-12.13,23.76-.16,9.92,1.48,16.16,2.51,19.08.13.37.67.26.65-.13-.32-6.06-.3-24.4,9.63-42.21Z"/>
    <path class="st2" d="M33.36,54.78c.64-.87,2.02-.52,2.12.56.53,5.73,1.25,18.55-2.1,25.16-3.33,6.57-9.59,16.95-12.43,21.61-.44.73-1.56.42-1.57-.43-.07-7.63.98-29.24,13.98-46.89Z"/>
    <path class="st2" d="M23.34,105.73c1.07,1.57,2.83,4.43,3.76,7.38.2.63,1.11.59,1.25-.06.43-1.86.9-4.31.94-6.17.03-1.58.11-3.16.34-4.73.5-3.45,1.34-8.02,3.26-12.2.68-1.49,1.71-3.28,2.31-4.97.44-1.24,1.45-3.62-.03-4.38,0,0-5.72,13.93-11.81,22.64-.52.75-.52,1.73-.01,2.48Z"/>
    <path class="st2" d="M13.37,98.75c-.34-1.39-2.11-1.84-3.05-.76-3.2,3.68-9.01,13.25-8.66,34.07,0,0,.28,17.04-.39,25.09-.03.35.46.45.57.12,3.35-9.85,14.77-45.07,11.53-58.52Z"/>
    <path class="st2" d="M22.02,108.04c.57,1.2,1.08,2.91.84,4.91-.11.91-.43,1.78-.84,2.6-1.56,3.1-7.29,15.19-16.66,42.19-.12.35-.64.22-.57-.14,2.11-10.88,8.36-40.87,14.62-49.78.66-.95,2.12-.82,2.61.23Z"/>
    <path class="st2" d="M23.45,116.95c.39-.92,1.71-.92,2.07,0,.78,1.98,1.37,5.26-.46,9.4,0,0-12.64,27.87-15.83,35.46-.13.32-.6.19-.57-.15.5-4.3,2.96-16.72,14.78-44.72Z"/>
    <path class="st2" d="M66.61,31.96c-7.71-.38-25.03.07-28.89,11.16-.84,2.43-.83,5.07-.18,7.55,1.64,6.21,6.84,21.93,17.64,23.17,5,.57,8.91.39,11.84-.06,4.28-.66,7.64-4.02,8.32-8.29,1.22-7.64,2.38-20.91-2.26-29.47-1.3-2.4-3.76-3.93-6.48-4.06Z"/>
    <path class="st2" d="M76.5,84.44c.03-2-.12-5.77-1.49-8.72-.42-.92-1.43-1.43-2.43-1.27l-7.69,1.22c-2.16.34-4.17,1.43-5.47,3.18-.78,1.04-1.36,2.37-1.32,4l.37,11.11c.04,1.31,1.53,2.05,2.59,1.28,3-2.15,8.36-5.8,14.19-8.81.75-.39,1.24-1.15,1.25-2Z"/>
    <path class="st2" d="M76.99,93.22v9.61c0,1.53-.57,3.03-1.69,4.07-.53.49-1.16.88-1.87.92,0,0-5.16.09-10.23,1.53-1.69.48-3.51-.22-4.46-1.7-.61-.95-1.06-2.22-.92-3.86.08-.92.48-1.79,1.09-2.48,2.33-2.62,9.22-9.97,14.05-11.25,2.04-.54,4.04,1.05,4.04,3.16Z"/>
    <path class="st2" d="M58.1,119.95c0,1.35.41,2.7,1.28,3.73.87,1.03,2.31,1.97,4.66,1.97h6.53c1.14,0,2.28-.16,3.35-.56,1.46-.53,3.07-1.54,3.07-3.37v-8.16s0-4.06-4.16-4.06c0,0-14.74.81-14.74,6.16v4.28Z"/>
    <path class="st2" d="M58.36,129.51c1.07,7.95,5.57,36.39,16.1,43.87,1.06.75,2.53-.05,2.53-1.36v-37.64c0-1.01-.43-2-1.21-2.64-.71-.58-1.55-1.48-1.97-2.7-.32-.93-1.22-1.53-2.2-1.46-2.52.17-7.11.37-11.46.05-1.07-.08-1.94.82-1.8,1.88Z"/>
    <path class="st2" d="M37.1,57.89c-.28,7.63-.37,25.92,4.35,36.76.23.53,1.01.45,1.14-.11.72-3.04,1.99-9.61.73-13.78-.55-1.82-1.12-3.64-1.53-5.5l-3.78-17.45c-.12-.53-.9-.47-.92.08Z"/>
    <path class="st2" d="M44.48,70.43c1.25,1.38,3.75,3.18,8.68,4.5.61.16.76.96.25,1.32-1.18.82-3.26,1.82-6.24,1.52-3.14-.32-3.86-4.14-3.98-6.8-.03-.7.82-1.04,1.29-.53Z"/>
    <path class="st2" d="M44.15,79.29c.45,1.01,1.04,2.39,1.35,3.41.18.58.79.89,1.36.67,1.34-.51,3.6-1.64,5.35-3.88.26-.34-.03-.83-.45-.75-1.7.31-4.92.73-7.01-.06-.39-.15-.76.23-.59.61Z"/>
    <path class="st2" d="M47.41,85.92c1.54-.96,4.81-3.09,6.34-4.8.34-.38.96-.24,1.08.26.35,1.45.77,3.84.39,5.72-.31,1.52-1.78,2.49-3.3,2.17-1.34-.28-3.17-.87-4.62-2.11-.39-.34-.33-.97.11-1.24Z"/>
    <path class="st2" d="M47.88,89.95c1.08.73,3.07,1.87,5.2,2.16.95.13,1.71.85,1.81,1.81.13,1.14.23,2.66.14,4.04-.08,1.15-1.2,1.92-2.29,1.54-3.12-1.1-8.96-3.63-8.64-7.12,0,0,.16-1.48,1.6-2.44.66-.44,1.52-.43,2.17.01Z"/>
    <path class="st2" d="M45.97,98.11l8.79,4.86c.38.21.62.61.62,1.05v7.15c0,.99-1.13,1.55-1.92.96l-7.73-5.84c-.75-.57-1.27-1.39-1.46-2.32-.25-1.25-.46-3.14-.06-5.06.17-.78,1.05-1.18,1.75-.79Z"/>
    <path class="st2" d="M46.53,109.53l7.36,5.76c.78.61,1.24,1.55,1.24,2.54v2.51c0,2.06-2.43,3.16-3.98,1.8l-5.94-5.23c-.73-.64-1.15-1.57-1.15-2.54v-3.63c0-1.28,1.47-2,2.48-1.21Z"/>
    <path class="st2" d="M42.35,119.66c.24-1.19,1.68-1.68,2.59-.88l6.26,5.44s5.23,4.52,5.23,13.9v10.06c0,2.73-3.32,4.07-5.21,2.1l-8-8.32c-1.12-1.16-1.63-2.79-1.35-4.38.17-1,.51-2.03,1.14-2.66,1.06-1.06.94-2.63.34-3.81-.87-1.72-1.47-3.57-1.51-5.5-.04-1.66.07-3.7.52-5.95Z"/>
    <path class="st0" d="M41.19,146.66c-.24-.73-1.28-.71-1.48.03-.84,3.07-2.17,8.79-2.53,15.31,0,0-.9,9.57-2.47,14.98-.98,3.35-1.58,6.81-1.55,10.3,0,.05,0,.11,0,.16.02,1.03,1.5,1.21,1.78.22l2.6-9.19c1.04-3.69,2.19-7.34,3.46-10.96.02-.06.04-.13.07-.19,2.29-6.61,2.37-13.79.2-20.44l-.07-.22Z"/>
    <path class="st0" d="M72.82,187.36l.19.14c1.42,1.02,2.36,2.6,2.55,4.34.33,2.99.59,8.06-.42,13.77l-3.94,24.93c-.07.42-.66.42-.73,0-.02-.13-.04-.27-.07-.41-1.01-6.23-1.1-12.58-.25-18.84.62-4.57,1.24-12.61-.07-22.3-.2-1.51,1.49-2.53,2.72-1.64Z"/>
    <path class="st2" d="M50.01,152.03l2.7,4.25c.26.4.39.87.39,1.35v5.59c0,.61-.83.8-1.09.25-.95-2.04-2.24-5.7-2.77-11.17-.04-.43.53-.63.76-.27Z"/>
    <path class="st2" d="M55.39,159.3l1.79,2.22c.83,1.03,1.28,2.32,1.26,3.64-.04,2.11-.44,5.41-2.25,8.45-.28.47-1,.33-1.1-.21-.41-2.36-1.11-7.44-.88-13.71.02-.61.79-.88,1.18-.4Z"/>
    <path class="st2" d="M61.25,166.58c.13.13.27.27.41.41,1.55,1.55,2.19,3.8,1.68,5.93-.68,2.85-1.91,6.8-3.93,9.42-.48.62-1.48.34-1.6-.44l-.73-4.88c-.11-.76.03-1.53.42-2.19.9-1.51,2.51-4.62,2.65-7.83.02-.55.69-.81,1.08-.42Z"/>
    <path class="st0" d="M45.8,149.99l.22.26c.52.63.91,1.37,1.15,2.15l8.55,28.19c1.41,4.66,2.95,9.28,4.59,13.86,3.15,8.84,9.04,28.21,7.62,46.09-.03.36-.56.39-.61.02-.88-6.09-3.64-21.86-10.26-38.18,0,0-10.04-27.9-12.73-51.78-.09-.83.95-1.27,1.47-.63Z"/>
    <path class="st0" d="M45.07,165.82c-.2-.97-1.56-1.01-1.82-.06-2,7.38-6.11,24.4-6.24,40.03,0,0,.18,13.55,2.32,18.71l8.29,20.25c.75,1.84,3.29,2.02,4.28.29.93-1.64,1.86-3.73,2.28-6.1,0,0,2.03-8.2,3.14-16.61.9-6.84.17-13.8-2.03-20.34-2.82-8.4-7.46-23.04-10.2-36.18Z"/>
    <path class="st0" d="M34.84,190.8h0c-.92,2.71-1.6,7.25-1.52,10.11l.61,22.87c.17,6.36,1.33,12.66,3.47,18.66,1.61,4.51,3.71,9.65,6.06,13.52.3.49,1.04.34,1.13-.23.34-2.2.86-6.28.62-9.49-.22-2.81-2.83-9.45-4.85-14.22-2.13-5.03-3.58-10.31-4.27-15.72-.72-5.64-1.17-13.09-.33-21.03l.48-4.15c.1-.86-1.12-1.13-1.39-.31Z"/>
    <path class="st0" d="M60.15,217.79c1.89,6.87,5.93,22.65,5.84,31.54-.02,2.48-.97,4.86-2.64,6.69l-2.46,2.71c-1.14,1.25-3.13,1.35-4.28.11-.52-.56-1.01-1.38-1.41-2.59-.48-1.45-.72-3.23-.82-5-.23-4.02.32-8.05,1.44-11.92,1.3-4.49,3.24-12.63,3.42-21.42.01-.54.78-.64.92-.12Z"/>
    <path class="st2" d="M64.9,260.4c0-.25-.35-.31-.43-.08-.72,2.12-2.28,6.33-4.37,9.53-.28.42-.09.99.37,1.19h0c.55.24.86.83.74,1.42-.14.66-.34,1.6-.56,2.64-.09.43.49.66.71.28l1.9-3.18c1.07-1.78,1.63-3.81,1.63-5.89v-5.93Z"/>
    <path class="st2" d="M60.92,288.95c.09,2.03.39,5.36,1.36,8.71,1.37,4.71,2.21,9.57,2.17,14.47-.03,3.87-.39,8.33-1.49,12.52-.32,1.21-1.78,1.71-2.78.95-2.5-1.89-6.29-6.52-6.23-17.16,0,0-.72-9.99,5.79-19.82.35-.52,1.17-.3,1.19.33Z"/>
    <path class="st2" d="M56.68,324.26c.78,1.08,1.9,2.3,3.36,3.11.79.44,1.18,1.36.95,2.24-.07.25-.14.53-.21.82-1.06,4.06-1.85,8.19-2.35,12.36l-.58,4.83c-.06.52-.81.53-.88.02-.52-3.57-1.29-10.66-1.63-22.91-.02-.73.91-1.05,1.34-.45Z"/>
    <path class="st2" d="M42.93,273.59c-.02-.78-1.06-.99-1.4-.29-1.33,2.74-3.07,7.97-2.38,15.9,0,0,2.44,35.67,12.48,60.43.34.84,1.6.5,1.46-.4l-7.82-52.54s-2.04-12.23-2.34-23.09Z"/>
    <path class="st2" d="M38.31,292.32c-.18-.74-1.28-.59-1.24.17.38,9.09,1.93,31.17,8.2,46.67,0,0,3.7,10.94,4.88,17.62.08.47.77.45.82-.03.16-1.69.17-3.86-.47-5.7l-3.15-10.16-1.99-7.53c-2.43-9.19-4.67-18.47-5.75-27.91-.57-5.03-.2-8.75-1.29-13.12Z"/>
    <path class="st2" d="M36.1,302.29c-.1-.54-.9-.45-.88.1.24,5.24,1.12,14.44,4.1,26.07,0,0,3.36,17.05,4.42,25.78.05.44.7.42.73-.03.16-3.23.09-8.12-1.11-13.63,0,0-5.03-26.8-7.26-38.29Z"/>
    <path class="st2" d="M79.68,8.08c.91-2.2,2.8-3.51,4.35-3.13-.9.72-1.91,2.19-2.68,4.04-.67,1.62-1,3.15-1,4.28-1.23-.92-1.55-3.09-.67-5.19Z"/>
    <path class="st2" d="M90.65,3.15l-6.19,22.89c-.08.31.33.5.51.23,1.55-2.4,4.6-7.32,6.37-11.42.76-1.76.99-3.69.66-5.57-.28-1.59-.6-3.81-.7-6.05-.02-.38-.55-.44-.64-.08Z"/>
    <path class="st2" d="M91.48,18.02v5.49c0,2.11-1.14,4.06-2.99,5.09-.57.32-1.23.61-1.95.82-.54.16-1.02-.4-.8-.91.8-1.85,2.54-5.71,5.07-10.64.17-.32.66-.21.66.16Z"/>
    <path class="st2" d="M94.13,15.57l2.17,9.25c.29,1.23.43,2.48.43,3.74h0c0,.92-.98,1.52-1.79,1.09h0c-1.11-.59-1.78-1.76-1.73-3.01l.42-11.03c.01-.29.43-.34.5-.05Z"/>
    <path class="st2" d="M95.88,16.95c1.55,1.74,5.33,4.97,13.39,7.35.64.19.7,1.07.1,1.34-1.57.71-4.12,1.73-7.15,2.42-1.56.35-3.16-.48-3.8-1.95-.83-1.91-2-4.92-3.07-8.86-.09-.32.31-.54.53-.29Z"/>
    <path class="st2" d="M103.79,30.23c1.7-.66,4.42-1.92,8.43-4.29,1.36-.8,2.95-1.11,4.51-.86,5.05.82,15.96,3.88,19.27,15.24.33,1.13.49,2.31.49,3.49v.07c0,2.27-.57,4.51-1.69,6.48-1.12,1.97-2.49,4.69-3.05,7.09-.25,1.06-1.44,1.59-2.37,1.02-1.31-.8-3.03-2.08-4.58-3.99-1.9-2.33-2.97-5.23-3.21-8.22-.34-4.22-2.77-13.58-17.65-15.14-.48-.05-.59-.71-.14-.89Z"/>
    <path class="st2" d="M138.87,45.11c.11.64.23,1.4.34,2.28.55,4.33.56,8.72.05,13.06-.2,1.68-.38,3.71-.37,5.51,0,.78-.96,1.15-1.48.56l-4.05-4.55c-.47-.53-.55-1.3-.19-1.92,1.33-2.28,4.39-8.17,5.05-14.9.04-.39.58-.43.65-.04Z"/>
    <path class="st2" d="M130.17,61.88c-.23-.42.31-.84.65-.51,3.86,3.73,11.95,12.82,12.13,23.76.16,9.92-1.48,16.16-2.51,19.08-.13.37-.67.26-.65-.13.32-6.06.3-24.4-9.63-42.21Z"/>
    <path class="st2" d="M123.37,54.78c-.64-.87-2.02-.52-2.12.56-.53,5.73-1.25,18.55,2.1,25.16,3.33,6.57,9.59,16.95,12.43,21.61.44.73,1.56.42,1.57-.43.07-7.63-.98-29.24-13.98-46.89Z"/>
    <path class="st2" d="M133.39,105.73c-1.07,1.57-2.83,4.43-3.76,7.38-.2.63-1.11.59-1.25-.06-.43-1.86-.9-4.31-.94-6.17-.03-1.58-.11-3.16-.34-4.73-.5-3.45-1.34-8.02-3.26-12.2-.68-1.49-1.71-3.28-2.31-4.97-.44-1.24-1.45-3.62.03-4.38,0,0,5.72,13.93,11.81,22.64.52.75.52,1.73.01,2.48Z"/>
    <path class="st2" d="M143.36,98.75c.34-1.39,2.11-1.84,3.05-.76,3.2,3.68,9.01,13.25,8.66,34.07,0,0-.28,17.04.39,25.09.03.35-.46.45-.57.12-3.35-9.85-14.77-45.07-11.53-58.52Z"/>
    <path class="st2" d="M134.71,108.04c-.57,1.2-1.08,2.91-.84,4.91.11.91.43,1.78.84,2.6,1.56,3.1,7.29,15.19,16.66,42.19.12.35.64.22.57-.14-2.11-10.88-8.36-40.87-14.62-49.78-.66-.95-2.12-.82-2.61.23Z"/>
    <path class="st2" d="M133.28,116.95c-.39-.92-1.71-.92-2.07,0-.78,1.98-1.37,5.26.46,9.4,0,0,12.64,27.87,15.83,35.46.13.32.6.19.57-.15-.5-4.3-2.96-16.72-14.78-44.72Z"/>
    <path class="st2" d="M90.12,31.96c7.71-.38,25.03.07,28.89,11.16.84,2.43.83,5.07.18,7.55-1.64,6.21-6.84,21.93-17.64,23.17-5,.57-8.91.39-11.84-.06-4.28-.66-7.64-4.02-8.32-8.29-1.22-7.64-2.38-20.91,2.26-29.47,1.3-2.4,3.76-3.93,6.48-4.06Z"/>
    <path class="st2" d="M80.23,84.44c-.03-2,.12-5.77,1.49-8.72.42-.92,1.43-1.43,2.43-1.27l7.69,1.22c2.16.34,4.17,1.43,5.47,3.18.78,1.04,1.36,2.37,1.32,4l-.37,11.11c-.04,1.31-1.53,2.05-2.59,1.28-3-2.15-8.36-5.8-14.19-8.81-.75-.39-1.24-1.15-1.25-2Z"/>
    <path class="st2" d="M79.74,93.22v9.61c0,1.53.57,3.03,1.69,4.07.53.49,1.16.88,1.87.92,0,0,5.16.09,10.23,1.53,1.69.48,3.51-.22,4.46-1.7.61-.95,1.06-2.22.92-3.86-.08-.92-.48-1.79-1.09-2.48-2.33-2.62-9.22-9.97-14.05-11.25-2.04-.54-4.04,1.05-4.04,3.16Z"/>
    <path class="st2" d="M98.64,119.95c0,1.35-.41,2.7-1.28,3.73-.87,1.03-2.31,1.97-4.66,1.97h-6.53c-1.14,0-2.28-.16-3.35-.56-1.46-.53-3.07-1.54-3.07-3.37v-8.16s0-4.06,4.16-4.06c0,0,14.74.81,14.74,6.16v4.28Z"/>
    <path class="st2" d="M98.38,129.51c-1.07,7.95-5.57,36.39-16.1,43.87-1.06.75-2.53-.05-2.53-1.36v-37.64c0-1.01.43-2,1.21-2.64.71-.58,1.55-1.48,1.97-2.7.32-.93,1.22-1.53,2.2-1.46,2.52.17,7.11.37,11.46.05,1.07-.08,1.94.82,1.8,1.88Z"/>
    <path class="st2" d="M119.63,57.89c.28,7.63.37,25.92-4.35,36.76-.23.53-1.01.45-1.14-.11-.72-3.04-1.99-9.61-.73-13.78.55-1.82,1.12-3.64,1.53-5.5l3.78-17.45c.12-.53.9-.47.92.08Z"/>
    <path class="st2" d="M112.26,70.43c-1.25,1.38-3.75,3.18-8.68,4.5-.61.16-.76.96-.25,1.32,1.18.82,3.26,1.82,6.24,1.52,3.14-.32,3.86-4.14,3.98-6.8.03-.7-.82-1.04-1.29-.53Z"/>
    <path class="st2" d="M112.58,79.29c-.45,1.01-1.04,2.39-1.35,3.41-.18.58-.79.89-1.36.67-1.34-.51-3.6-1.64-5.35-3.88-.26-.34.04-.83.45-.75,1.7.31,4.92.73,7.01-.06.39-.15.76.23.59.61Z"/>
    <path class="st2" d="M109.32,85.92c-1.54-.96-4.81-3.09-6.34-4.8-.34-.38-.96-.24-1.08.26-.35,1.45-.77,3.84-.39,5.72.31,1.52,1.78,2.49,3.3,2.17,1.34-.28,3.17-.87,4.62-2.11.39-.34.33-.97-.11-1.24Z"/>
    <path class="st2" d="M108.85,89.95c-1.08.73-3.07,1.87-5.2,2.16-.95.13-1.71.85-1.81,1.81-.13,1.14-.23,2.66-.14,4.04.08,1.15,1.2,1.92,2.29,1.54,3.12-1.1,8.96-3.63,8.64-7.12,0,0-.16-1.48-1.6-2.44-.66-.44-1.52-.43-2.17.01Z"/>
    <path class="st2" d="M110.77,98.11l-8.79,4.86c-.38.21-.62.61-.62,1.05v7.15c0,.99,1.13,1.55,1.92.96l7.73-5.84c.75-.57,1.27-1.39,1.46-2.32.25-1.25.46-3.14.06-5.06-.17-.78-1.05-1.18-1.75-.79Z"/>
    <path class="st2" d="M110.2,109.53l-7.36,5.76c-.78.61-1.24,1.55-1.24,2.54v2.51c0,2.06,2.43,3.16,3.98,1.8l5.94-5.23c.73-.64,1.15-1.57,1.15-2.54v-3.63c0-1.28-1.47-2-2.48-1.21Z"/>
    <path class="st2" d="M114.38,119.66c-.24-1.19-1.68-1.68-2.59-.88l-6.26,5.44s-5.23,4.52-5.23,13.9v10.06c0,2.73,3.32,4.07,5.21,2.1l8-8.32c1.12-1.16,1.63-2.79,1.35-4.38-.17-1-.51-2.03-1.14-2.66-1.06-1.06-.94-2.63-.34-3.81.87-1.72,1.47-3.57,1.51-5.5.04-1.66-.07-3.7-.52-5.95Z"/>
    <path class="st0" d="M115.54,146.66c.24-.73,1.28-.71,1.48.03.84,3.07,2.17,8.79,2.53,15.31,0,0,.9,9.57,2.47,14.98.98,3.35,1.58,6.81,1.55,10.3,0,.05,0,.11,0,.16-.02,1.03-1.5,1.21-1.78.22l-2.6-9.19c-1.04-3.69-2.19-7.34-3.46-10.96-.02-.06-.04-.13-.07-.19-2.29-6.61-2.37-13.79-.2-20.44l.07-.22Z"/>
    <path class="st0" d="M83.91,187.36l-.19.14c-1.42,1.02-2.36,2.6-2.55,4.34-.33,2.99-.59,8.06.42,13.77l3.94,24.93c.07.42.66.42.73,0,.02-.13.04-.27.07-.41,1.01-6.23,1.1-12.58.25-18.84-.62-4.57-1.24-12.61.07-22.3.2-1.51-1.49-2.53-2.72-1.64Z"/>
    <path class="st2" d="M106.72,152.03l-2.7,4.25c-.26.4-.39.87-.39,1.35v5.59c0,.61.83.8,1.09.25.95-2.04,2.24-5.7,2.77-11.17.04-.43-.53-.63-.76-.27Z"/>
    <path class="st2" d="M101.34,159.3l-1.79,2.22c-.83,1.03-1.28,2.32-1.26,3.64.04,2.11.44,5.41,2.25,8.45.28.47,1,.33,1.1-.21.41-2.36,1.11-7.44.88-13.71-.02-.61-.79-.88-1.18-.4Z"/>
    <path class="st2" d="M95.48,166.58c-.13.13-.27.27-.41.41-1.55,1.55-2.19,3.8-1.68,5.93.68,2.85,1.91,6.8,3.93,9.42.48.62,1.48.34,1.6-.44l.73-4.88c.11-.76-.03-1.53-.42-2.19-.9-1.51-2.51-4.62-2.65-7.83-.02-.55-.69-.81-1.08-.42Z"/>
    <path class="st0" d="M110.93,149.99l-.22.26c-.52.63-.91,1.37-1.15,2.15l-8.55,28.19c-1.41,4.66-2.95,9.28-4.59,13.86-3.15,8.84-9.04,28.21-7.62,46.09.03.36.56.39.61.02.88-6.09,3.64-21.86,10.26-38.18,0,0,10.04-27.9,12.73-51.78.09-.83-.95-1.27-1.47-.63Z"/>
    <path class="st0" d="M111.66,165.82c.2-.97,1.56-1.01,1.82-.06,2,7.38,6.11,24.4,6.24,40.03,0,0-.18,13.55-2.32,18.71l-8.29,20.25c-.75,1.84-3.29,2.02-4.28.29-.93-1.64-1.86-3.73-2.28-6.1,0,0-2.03-8.2-3.14-16.61-.9-6.84-.17-13.8,2.03-20.34,2.82-8.4,7.46-23.04,10.2-36.18Z"/>
    <path class="st0" d="M121.89,190.8h0c.92,2.71,1.6,7.25,1.52,10.11l-.61,22.87c-.17,6.36-1.33,12.66-3.47,18.66-1.61,4.51-3.71,9.65-6.06,13.52-.3.49-1.04.34-1.13-.23-.34-2.2-.86-6.28-.62-9.49.22-2.81,2.83-9.45,4.85-14.22,2.13-5.03,3.58-10.31,4.27-15.72.72-5.64,1.17-13.09.33-21.03l-.48-4.15c-.1-.86,1.12-1.13,1.39-.31Z"/>
    <path class="st0" d="M96.59,217.79c-1.89,6.87-5.93,22.65-5.84,31.54.02,2.48.97,4.86,2.64,6.69l2.46,2.71c1.14,1.25,3.13,1.35,4.28.11.52-.56,1.01-1.38,1.41-2.59.48-1.45.72-3.23.82-5,.23-4.02-.32-8.05-1.44-11.92-1.3-4.49-3.24-12.63-3.42-21.42-.01-.54-.78-.64-.92-.12Z"/>
    <path class="st2" d="M91.83,260.4c0-.25.35-.31.43-.08.72,2.12,2.28,6.33,4.37,9.53.28.42.09.99-.37,1.19h0c-.55.24-.86.83-.74,1.42.14.66.34,1.6.56,2.64.09.43-.49.66-.71.28l-1.9-3.18c-1.07-1.78-1.63-3.81-1.63-5.89v-5.93Z"/>
    <path class="st2" d="M95.82,288.95c-.09,2.03-.39,5.36-1.36,8.71-1.37,4.71-2.21,9.57-2.17,14.47.03,3.87.39,8.33,1.49,12.52.32,1.21,1.78,1.71,2.78.95,2.5-1.89,6.29-6.52,6.23-17.16,0,0,.72-9.99-5.79-19.82-.35-.52-1.17-.3-1.19.33Z"/>
    <path class="st2" d="M100.05,324.26c-.78,1.08-1.9,2.3-3.36,3.11-.79.44-1.18,1.36-.95,2.24.07.25.14.53.21.82,1.06,4.06,1.85,8.19,2.35,12.36l.58,4.83c.06.52.81.53.88.02.52-3.57,1.29-10.66,1.63-22.91.02-.73-.91-1.05-1.34-.45Z"/>
    <path class="st2" d="M113.81,273.59c.02-.78,1.06-.99,1.4-.29,1.33,2.74,3.07,7.97,2.38,15.9,0,0-2.44,35.67-12.48,60.43-.34.84-1.6.5-1.46-.4l7.82-52.54s2.04-12.23,2.34-23.09Z"/>
    <path class="st2" d="M118.42,292.32c.18-.74,1.28-.59,1.24.17-.38,9.09-1.93,31.17-8.2,46.67,0,0-3.7,10.94-4.88,17.62-.08.47-.77.45-.82-.03-.16-1.69-.17-3.86.47-5.7l3.15-10.16,1.99-7.53c2.43-9.19,4.67-18.47,5.75-27.91.57-5.03.2-8.75,1.29-13.12Z"/>
    <path class="st2" d="M120.63,302.29c.1-.54.9-.45.88.1-.24,5.24-1.12,14.44-4.1,26.07,0,0-3.36,17.05-4.42,25.78-.05.44-.7.42-.73-.03-.16-3.23-.09-8.12,1.11-13.63,0,0,5.03-26.8,7.26-38.29Z"/>
  </g>
  <g>
    <path class="st2" d="M297.5,333.27c.58,2.77,1.36,6.18,2.01,8.03.46,1.28.87,2.57,1.18,3.9.67,2.82,1.63,7.21,1.92,10.34.04.44-.57.57-.72.16l-3.02-8.72s-1.85-5.04-2.21-13.59c-.02-.51.72-.61.82-.11Z"/>
    <path class="st2" d="M313.1,341.29l-.23,5.41c-.11,2.48-.44,4.95-.98,7.37l-.62,2.74c-.11.47-.8.39-.79-.1.11-3.64.53-9.52,1.97-15.51.09-.39.67-.31.65.09Z"/>
    <path class="st2" d="M309.64,275.39l3.03,3.99c1.38,1.82,2.26,3.96,2.55,6.22l2.86,22.24c.31,2.38.41,4.78.23,7.16-.13,1.77-.42,3.72-1,5.38,0,0-.95,3.15-1.86,6.88-.4,1.62-2.29,2.33-3.68,1.4-1.49-.99-3.26-2.57-4.68-5-.78-1.35-1.17-2.89-1.12-4.44.16-4.99.59-18.17.77-23.89.05-1.61.15-3.21.28-4.82.2-2.5.46-6.57.15-8.49-.25-1.57-.02-4.08.23-6.06.14-1.11,1.55-1.48,2.23-.59Z"/>
    <path class="st2" d="M298.26,270.58l-.7,1.06c-1.92,2.93-3.15,6.27-3.5,9.76-.17,1.68-.5,3.71-1.15,5.88-1.43,4.78-2.12,9.75-1.91,14.73.15,3.55.6,7.43,1.66,10.66l2.61,8.75c.6,2.02,3.21,2.56,4.56.94l2.55-3.06c1.11-1.33,1.78-2.97,1.92-4.7.33-4.06.87-11.8.65-16.35-.1-2.05-.16-4.1-.13-6.16l.18-13.52s.02-4.17-3.39-8.2c-.9-1.07-2.58-.97-3.35.2Z"/>
    <path class="st0" d="M289.55,186.96c-1.48,7.23-2.76,22.9,3.85,49.81.26,1.07,1.83.91,1.86-.19l.7-25.62c.1-3.65-.49-7.28-1.69-10.72-1.23-3.53-2.71-8.5-3.21-13.19-.09-.87-1.33-.94-1.51-.08Z"/>
    <path class="st1" d="M294.47,269.44c-.41-4.6-.62-12.4,1.96-16.86,1.12-1.94,1.45-4.24,1.05-6.44,0-.04-.01-.07-.02-.11-.33-1.77-.43-3.58-.36-5.38l.87-22.13s-.21-14.7,5.45-19.94c2.47-2.29,6.57-.59,6.52,2.78,0,.64-.11,1.35-.35,2.13,0,0-2.65,13.01-3.63,44.05,0,0-.35,4.84-2.25,7.95l-7.17,14.34c-.5.99-1.98.71-2.08-.39Z"/>
    <path class="st1" d="M311.33,202.16c-.61,3.62-1.33,8.79-1.43,13.3-.09,3.74-.38,7.47-.76,11.19l-1.1,10.84s-2.33,21.3,1.37,32.43c.45,1.36,2.47.99,2.42-.44-.24-6.5-.03-17.6,3.29-26.08,0,0,5.18-16.07,4.84-23.32-.23-4.83-3.59-13.21-5.82-18.28-.59-1.35-2.57-1.09-2.81.36Z"/>
    <path class="st1" d="M317.97,197.25c2.07-.3,5.15-.85,7.6-1.77,1.45-.54,3.03.31,3.42,1.81.65,2.51,1.1,6.4-.39,10.87,0,0-1.96,4.9-1.72,9.28.07,1.26.09,2.52-.05,3.77-.22,1.97-.63,4.87-1.32,7.38-.3,1.11-1.92.95-2.01-.19-.49-5.66-1.81-15.64-5.27-21.97-.42-.78-.84-1.55-1.18-2.37-.42-1.01-.95-2.38-1.25-3.7-.34-1.47.69-2.91,2.19-3.12Z"/>
    <path class="st1" d="M321.99,230.63c.08.58.16,1.19.23,1.82.59,4.91.45,9.88-.36,14.76-.59,3.55-1.38,8.73-1.88,13.81,0,0-.87,9.48-2.22,15.1-.3,1.24-2.06,1.25-2.39.02-1.27-4.74-2.79-13.49.35-21.51,0,0,3.73-9.06,4.94-23.95.07-.8,1.22-.84,1.32-.05Z"/>
    <path class="st2" d="M300.65,143.5c-1.1,1.62-2.61,4.32-3.72,8.1-.44,1.5,1.24,2.74,2.55,1.89,3.47-2.24,8.97-5.66,13.93-8.15,1.22-.61,1.09-2.42-.21-2.83-1.66-.53-4.4-.96-8.94-.92-1.45.01-2.8.71-3.61,1.91Z"/>
    <path class="st2" d="M321.43,147.23c1.08.81,2.27,1.79,3.44,2.94,3.61,3.51,5.62,8.35,5.62,13.38v19.35c0,3.93-2.1,7.59-5.54,9.49-2.8,1.54-6.6,2.91-11.31,2.91-6.46,0-11.52-4.93-14.54-8.89-2.06-2.69-3.14-6.01-3.14-9.39v-12.34c0-3.39,1.3-6.7,3.74-9.05.67-.65,1.45-1.28,2.38-1.87l10.98-6.88c2.59-1.62,5.92-1.49,8.37.34Z"/>
    <path class="st2" d="M298.81,116.77l-1.48,4.3c-.16.46.35.86.76.6l2.66-1.72c.21-.14.29-.41.19-.64l-1.18-2.58c-.19-.42-.8-.39-.95.05Z"/>
    <path class="st2" d="M301.67,122.34l.58,1.4c.13.32.1.68-.09.96-.73,1.11-2.66,4.07-4.26,6.79-.54.91-1.93.53-1.93-.53v-3.26c0-.16.03-.31.1-.45.35-.73,1.64-3.18,3.94-5.3.53-.48,1.38-.28,1.65.38Z"/>
    <path class="st2" d="M305.08,127.97l1.91,3.16c.89,1.47.91,3.37-.1,4.76-.65.88-1.67,1.57-3.28,1.38-1.58-.18-3.19.24-4.57.82-1.29.54-2.57-.81-1.98-2.07,1.08-2.33,2.65-5.31,4.73-8.18.83-1.15,2.57-1.08,3.3.13Z"/>
    <path class="st2" d="M330.5,100.54v47.41c0,1.27-1.43,1.99-2.46,1.26-1.55-1.1-3.37-2.82-3.93-5.15-.76-3.16-7.36-6.42-10.84-7.94-.95-.41-1.19-1.64-.47-2.39,1.52-1.56,3.53-4.15,3.53-6.88,0,0,.11-8.73,2.25-14.58,0,0,2.05-8.65,9.8-12.98.95-.53,2.12.16,2.12,1.25Z"/>
    <path class="st2" d="M330.5,90.34V4.39c0-1.57-2.14-2.06-2.8-.64-.51,1.08-.93,2.29-1.09,3.55-.18,1.34-.43,2.66-.89,3.92-1.37,3.7-4.76,9.96-12.31,11.4,0,0-6.81,1.44-11.43,3.03-1.74.6-2.28,2.8-.98,4.11,3.26,3.28,8.38,9.21,8.26,13.93,0,0,1.82,16.25,8.88,27.39,1.2,1.89,2.38,3.8,3.42,5.78,1.93,3.65,4.87,9.36,6.9,13.91.47,1.05,2.04.71,2.04-.44h0Z"/>
    <path class="st2" d="M324.28,4.92c-.05-.44-.68-.48-.78-.05-.68,2.83-2.88,7.62-5.17,11.04-.55.83.49,1.8,1.28,1.19,2.66-2.06,5.45-5.78,4.67-12.18Z"/>
    <path class="st2" d="M315.43,69.47c2.43,3.8,6.29,10.28,8.45,16.32,1.34,3.74,1,7.88-.93,11.35-1.37,2.46-3.12,5.76-4.82,9.37-3.25,6.9-4.9,14.45-4.9,22.08h0c0,.52-.16,1.02-.45,1.44h0c-.96,1.37-2.95,1.45-4.02.16-2.14-2.59-5.19-7.01-6.17-12.11-.7-3.61-1.58-7.18-2.66-10.69l-8.03-26.25c-.76-2.49-1.15-5.08-1.15-7.69h0c0-2.21,1.93-3.91,4.12-3.62,4.24.56,10.86.88,15.56-1.61,1.75-.93,3.92-.42,4.99,1.25Z"/>
    <path class="st2" d="M287.96,55.58c-.45-2.13,1.97-3.69,3.7-2.37,1.75,1.33,3.8,3.2,5.64,5.69,2.17,2.94,5.37,4.49,8.03,5.31,1.76.54,1.74,3.01-.03,3.53-1.94.56-4.47.84-7.6.3-2.83-.49-5.3-2.17-6.73-4.66-1.12-1.95-2.35-4.63-3.02-7.79Z"/>
    <path class="st2" d="M289.39,46.78c.61.97,1.54,2.46,2.24,3.72.27.48-.27,1.01-.75.73l-2.36-1.38c-.58-.34-.92-.97-.85-1.64.04-.4.12-.86.27-1.28.23-.63,1.09-.71,1.45-.15Z"/>
    <path class="st2" d="M294.7,41.56l4.07-2.76c.15-.1.29-.19.45-.27,1.1-.56,5.17-2.3,7.04,1.66.26.55.41,1.15.52,1.75l2.3,13.04s.47,3.86,1.97,6.4c.45.76-.12,1.74-1,1.68-1.52-.09-3.95-.7-7.53-2.85-7.03-4.2-8.93-10.25-8.93-10.25,0,0-.26-.64-.67-1.47-1.22-2.44-.48-5.41,1.78-6.94Z"/>
    <path class="st2" d="M295.43,35.24c-1.29-.49-2.78-1.18-3.72-2.02,0,0-5.55-3.51-9.93-.75,0,0-7.32,4.61-10.16,14.03-.82,2.73-1.1,5.6-.97,8.45l.41,9.35c.07,1.51,1.91,2.19,2.94,1.09l8.57-9.12c1.4-1.49,2.35-3.34,2.71-5.34.26-1.46.75-3.3,1.64-5.05.7-1.38,1.73-2.56,2.95-3.52l5.92-4.66c.87-.69.67-2.07-.37-2.46Z"/>
    <path class="st2" d="M283.76,60.06c-.69,1.2-1.5,2.68-2.31,4.26-2.11,4.16-3.41,8.67-3.86,13.31l-1.66,17.16c-.14,1.45-.21,2.9-.21,4.35v5.18c0,.84.19,1.67.55,2.43h0c.37.78,1.36,1.03,2.05.52h0c1.5-1.1,2.68-2.57,3.42-4.27l4.28-9.83c1.3-2.99,2.07-6.17,2.27-9.42.38-6.26.62-16.8-1.36-23.33-.44-1.47-2.43-1.69-3.19-.36Z"/>
    <path class="st2" d="M276.75,65.5c-2.42,2.12-5.56,6.42-5.76,14.47-.04,1.61-.07,3.21-.18,4.81-.21,3.26-.49,8.85-.26,12.98.04.77,1.14.87,1.33.12.89-3.67,2.18-9.62,2.47-14.52,0,0,1.33-10.68,3.77-16.87.33-.85-.68-1.59-1.37-.99Z"/>
    <path class="st2" d="M279.28,112.13c.61-.85,1.48-1.94,2.6-3.12.81-.86,2.26-.25,2.21.93-.08,1.99-.27,4.6-.71,6.74-.29,1.4-1.98,2.02-3.07,1.1-.38-.31-.75-.7-1.08-1.15-.96-1.34-.92-3.16.05-4.5Z"/>
    <path class="st2" d="M267.57,105.33c-.5-.9-1.84-.66-2.02.35-.35,1.98-.46,4.93.74,8.32,0,0,1.36,3.41,2.22,6.23.29.95,1.63.99,1.97.05.66-1.85,1.29-4.12,1.12-5.71-.23-2.08-2.52-6.53-4.02-9.25Z"/>
    <path class="st2" d="M258.62,132.99c-1.06,7.01-2.97,20.76-3.15,30.3-.01.69.97.82,1.13.15,1.39-5.92,3.57-17.54,3.03-30.39-.03-.61-.92-.67-1.01-.06Z"/>
    <path class="st2" d="M264.92,116.03c.68,2.53,1.52,5.56,2.19,7.6.46,1.39.67,2.86.62,4.33-.14,4.21-.67,12.75-2.62,18.53-1.61,4.77-3.43,11.58-4.63,16.28-.14.54-.93.4-.89-.15l3.75-46.44c.07-.9,1.35-1.02,1.58-.14Z"/>
    <path class="st2" d="M274.55,121.3s.02-.06.02-.09c.34-1.26,1.73-1.95,2.91-1.4,1.01.47,2.12,1.22,2.89,2.44,1.19,1.88,1.09,4.31-.06,6.22-.98,1.64-2.55,4.79-4.13,10.1-.52,1.75-1.15,3.47-1.85,5.16l-9.59,23.01c-.25.6-1.15.33-1.03-.31l4.76-25.74s1.5-9.26,3.85-13.81c.92-1.79,1.69-3.65,2.23-5.59Z"/>
    <path class="st2" d="M367.11,333.27c-.58,2.77-1.36,6.18-2.01,8.03-.46,1.28-.87,2.57-1.19,3.9-.67,2.82-1.63,7.21-1.92,10.34-.04.44.57.57.72.16l3.02-8.72s1.85-5.04,2.21-13.59c.02-.51-.72-.61-.82-.11Z"/>
    <path class="st2" d="M351.51,341.29l.23,5.41c.11,2.48.44,4.95.98,7.37l.62,2.74c.11.47.8.39.79-.1-.11-3.64-.53-9.52-1.97-15.51-.09-.39-.67-.31-.65.09Z"/>
    <path class="st2" d="M354.97,275.39l-3.03,3.99c-1.38,1.82-2.26,3.96-2.55,6.22l-2.86,22.24c-.31,2.38-.41,4.78-.23,7.16.13,1.77.42,3.72,1,5.38,0,0,.95,3.15,1.86,6.88.4,1.62,2.29,2.33,3.68,1.4,1.49-.99,3.26-2.57,4.68-5,.78-1.35,1.17-2.89,1.12-4.44-.16-4.99-.59-18.17-.77-23.89-.05-1.61-.15-3.21-.28-4.82-.2-2.5-.46-6.57-.15-8.49.25-1.57.02-4.08-.23-6.06-.14-1.11-1.55-1.48-2.23-.59Z"/>
    <path class="st2" d="M366.35,270.58l.69,1.06c1.92,2.93,3.15,6.27,3.5,9.76.17,1.68.5,3.71,1.15,5.88,1.43,4.78,2.12,9.75,1.91,14.73-.15,3.55-.6,7.43-1.66,10.66l-2.61,8.75c-.6,2.02-3.21,2.56-4.56.94l-2.55-3.06c-1.11-1.33-1.78-2.97-1.92-4.7-.33-4.06-.87-11.8-.65-16.35.1-2.05.16-4.1.13-6.16l-.18-13.52s-.02-4.17,3.39-8.2c.9-1.07,2.58-.97,3.35.2Z"/>
    <path class="st0" d="M375.06,186.96c1.48,7.23,2.76,22.9-3.85,49.81-.26,1.07-1.83.91-1.86-.19l-.7-25.62c-.1-3.65.49-7.28,1.69-10.72,1.23-3.53,2.71-8.5,3.21-13.19.09-.87,1.33-.94,1.51-.08Z"/>
    <path class="st1" d="M370.14,269.44c.41-4.6.62-12.4-1.96-16.86-1.12-1.94-1.45-4.24-1.05-6.44,0-.04.01-.07.02-.11.33-1.77.43-3.58.36-5.38l-.87-22.13s.21-14.7-5.45-19.94c-2.47-2.29-6.57-.59-6.52,2.78,0,.64.11,1.35.35,2.13,0,0,2.65,13.01,3.63,44.05,0,0,.35,4.84,2.25,7.95l7.17,14.34c.5.99,1.98.71,2.08-.39Z"/>
    <path class="st1" d="M353.28,202.16c.61,3.62,1.33,8.79,1.43,13.3.09,3.74.38,7.47.76,11.19l1.1,10.84s2.33,21.3-1.37,32.43c-.45,1.36-2.47.99-2.42-.44.24-6.5.03-17.6-3.29-26.08,0,0-5.18-16.07-4.84-23.32.23-4.83,3.59-13.21,5.82-18.28.59-1.35,2.57-1.09,2.81.36Z"/>
    <path class="st1" d="M346.64,197.25c-2.07-.3-5.15-.85-7.6-1.77-1.45-.54-3.03.31-3.42,1.81-.65,2.51-1.1,6.4.39,10.87,0,0,1.96,4.9,1.72,9.28-.07,1.26-.09,2.52.05,3.77.22,1.97.63,4.87,1.32,7.38.3,1.11,1.92.95,2.01-.19.49-5.66,1.81-15.64,5.27-21.97.42-.78.84-1.55,1.18-2.37.42-1.01.95-2.38,1.25-3.7.34-1.47-.69-2.91-2.19-3.12Z"/>
    <path class="st1" d="M342.62,230.63c-.08.58-.16,1.19-.23,1.82-.59,4.91-.45,9.88.36,14.76.59,3.55,1.38,8.73,1.88,13.81,0,0,.87,9.48,2.22,15.1.3,1.24,2.06,1.25,2.39.02,1.27-4.74,2.79-13.49-.35-21.51,0,0-3.73-9.06-4.94-23.95-.07-.8-1.22-.84-1.32-.05Z"/>
    <path class="st2" d="M363.96,143.5c1.1,1.62,2.61,4.32,3.72,8.1.44,1.5-1.24,2.74-2.55,1.89-3.47-2.24-8.97-5.66-13.93-8.15-1.22-.61-1.09-2.42.21-2.83,1.66-.53,4.4-.96,8.94-.92,1.45.01,2.8.71,3.61,1.91Z"/>
    <path class="st2" d="M343.17,147.23c-1.08.81-2.27,1.79-3.44,2.94-3.61,3.51-5.62,8.35-5.62,13.38v19.35c0,3.93,2.1,7.59,5.54,9.49,2.8,1.54,6.6,2.91,11.31,2.91,6.46,0,11.52-4.93,14.54-8.89,2.06-2.69,3.14-6.01,3.14-9.39v-12.34c0-3.39-1.3-6.7-3.74-9.05-.67-.65-1.46-1.28-2.38-1.87l-10.98-6.88c-2.59-1.62-5.92-1.49-8.37.34Z"/>
    <path class="st2" d="M365.79,116.77l1.48,4.3c.16.46-.35.86-.76.6l-2.66-1.72c-.21-.14-.29-.41-.19-.64l1.18-2.58c.19-.42.8-.39.95.05Z"/>
    <path class="st2" d="M362.94,122.34l-.58,1.4c-.13.32-.1.68.09.96.73,1.11,2.66,4.07,4.26,6.79.54.91,1.93.53,1.93-.53v-3.26c0-.16-.03-.31-.1-.45-.35-.73-1.64-3.18-3.94-5.3-.53-.48-1.38-.28-1.65.38Z"/>
    <path class="st2" d="M359.53,127.97l-1.91,3.16c-.89,1.47-.91,3.37.1,4.76.65.88,1.67,1.57,3.28,1.38,1.58-.18,3.19.24,4.57.82,1.29.54,2.57-.81,1.98-2.07-1.08-2.33-2.65-5.31-4.73-8.18-.83-1.15-2.57-1.08-3.3.13Z"/>
    <path class="st2" d="M334.11,100.54v47.41c0,1.27,1.43,1.99,2.46,1.26,1.55-1.1,3.37-2.82,3.93-5.15.76-3.16,7.36-6.42,10.84-7.94.95-.41,1.19-1.64.47-2.39-1.52-1.56-3.53-4.15-3.53-6.88,0,0-.11-8.73-2.25-14.58,0,0-2.05-8.65-9.8-12.98-.95-.53-2.12.16-2.12,1.25Z"/>
    <path class="st2" d="M334.11,90.34V4.39c0-1.57,2.14-2.06,2.8-.64.51,1.08.93,2.29,1.09,3.55.18,1.34.43,2.66.89,3.92,1.37,3.7,4.76,9.96,12.31,11.4,0,0,6.81,1.44,11.43,3.03,1.74.6,2.28,2.8.98,4.11-3.26,3.28-8.38,9.21-8.26,13.93,0,0-1.82,16.25-8.88,27.39-1.2,1.89-2.38,3.8-3.42,5.78-1.93,3.65-4.87,9.36-6.9,13.91-.47,1.05-2.04.71-2.04-.44h0Z"/>
    <path class="st2" d="M340.33,4.92c.05-.44.68-.48.78-.05.68,2.83,2.88,7.62,5.17,11.04.55.83-.49,1.8-1.28,1.19-2.66-2.06-5.45-5.78-4.67-12.18Z"/>
    <path class="st2" d="M349.17,69.47c-2.43,3.8-6.29,10.28-8.45,16.32-1.34,3.74-1,7.88.93,11.35,1.37,2.46,3.12,5.76,4.82,9.37,3.25,6.9,4.9,14.45,4.9,22.08h0c0,.52.16,1.02.45,1.44h0c.96,1.37,2.95,1.45,4.02.16,2.14-2.59,5.19-7.01,6.17-12.11.7-3.61,1.58-7.18,2.66-10.69l8.03-26.25c.76-2.49,1.15-5.08,1.15-7.69h0c0-2.21-1.93-3.91-4.12-3.62-4.24.56-10.86.88-15.56-1.61-1.75-.93-3.92-.42-4.99,1.25Z"/>
    <path class="st2" d="M376.65,55.58c.45-2.13-1.97-3.69-3.7-2.37-1.75,1.33-3.8,3.2-5.64,5.69-2.17,2.94-5.37,4.49-8.03,5.31-1.76.54-1.74,3.01.03,3.53,1.94.56,4.47.84,7.6.3,2.83-.49,5.3-2.17,6.73-4.66,1.12-1.95,2.35-4.63,3.02-7.79Z"/>
    <path class="st2" d="M375.22,46.78c-.61.97-1.54,2.46-2.24,3.72-.27.48.27,1.01.75.73l2.36-1.38c.58-.34.92-.97.85-1.64-.04-.4-.12-.86-.27-1.28-.23-.63-1.09-.71-1.45-.15Z"/>
    <path class="st2" d="M369.91,41.56l-4.07-2.76c-.15-.1-.29-.19-.45-.27-1.1-.56-5.17-2.3-7.04,1.66-.26.55-.41,1.15-.52,1.75l-2.3,13.04s-.47,3.86-1.97,6.4c-.45.76.12,1.74,1,1.68,1.52-.09,3.95-.7,7.53-2.85,7.03-4.2,8.93-10.25,8.93-10.25,0,0,.26-.64.67-1.47,1.22-2.44.48-5.41-1.78-6.94Z"/>
    <path class="st2" d="M369.18,35.24c1.29-.49,2.78-1.18,3.72-2.02,0,0,5.55-3.51,9.93-.75,0,0,7.32,4.61,10.16,14.03.82,2.73,1.1,5.6.97,8.45l-.41,9.35c-.07,1.51-1.91,2.19-2.94,1.09l-8.57-9.12c-1.4-1.49-2.35-3.34-2.71-5.34-.26-1.46-.75-3.3-1.64-5.05-.7-1.38-1.73-2.56-2.95-3.52l-5.92-4.66c-.87-.69-.67-2.07.37-2.46Z"/>
    <path class="st2" d="M380.84,60.06c.69,1.2,1.5,2.68,2.31,4.26,2.1,4.16,3.41,8.67,3.86,13.31l1.66,17.16c.14,1.45.21,2.9.21,4.35v5.18c0,.84-.19,1.67-.55,2.43h0c-.37.78-1.36,1.03-2.05.52h0c-1.5-1.1-2.68-2.57-3.42-4.27l-4.28-9.83c-1.3-2.99-2.07-6.17-2.27-9.42-.38-6.26-.62-16.8,1.36-23.33.44-1.47,2.43-1.69,3.19-.36Z"/>
    <path class="st2" d="M387.86,65.5c2.42,2.12,5.56,6.42,5.76,14.47.04,1.61.07,3.21.18,4.81.21,3.26.49,8.85.27,12.98-.04.77-1.15.87-1.33.12-.89-3.67-2.18-9.62-2.47-14.52,0,0-1.33-10.68-3.77-16.87-.33-.85.68-1.59,1.37-.99Z"/>
    <path class="st2" d="M385.33,112.13c-.61-.85-1.48-1.94-2.6-3.12-.81-.86-2.26-.25-2.21.93.08,1.99.27,4.6.71,6.74.29,1.4,1.98,2.02,3.07,1.1.38-.31.75-.7,1.08-1.15.96-1.34.92-3.16-.05-4.5Z"/>
    <path class="st2" d="M397.04,105.33c.5-.9,1.84-.66,2.02.35.35,1.98.46,4.93-.74,8.32,0,0-1.36,3.41-2.22,6.23-.29.95-1.63.99-1.97.05-.66-1.85-1.29-4.12-1.12-5.71.23-2.08,2.52-6.53,4.02-9.25Z"/>
    <path class="st2" d="M405.99,132.99c1.06,7.01,2.97,20.76,3.15,30.3.01.69-.97.82-1.13.15-1.39-5.92-3.57-17.54-3.03-30.39.03-.61.92-.67,1.01-.06Z"/>
    <path class="st2" d="M399.68,116.03c-.68,2.53-1.52,5.56-2.19,7.6-.46,1.39-.67,2.86-.62,4.33.14,4.21.67,12.75,2.62,18.53,1.61,4.77,3.43,11.58,4.63,16.28.14.54.93.4.89-.15l-3.75-46.44c-.07-.9-1.35-1.02-1.58-.14Z"/>
    <path class="st2" d="M390.06,121.3s-.02-.06-.02-.09c-.34-1.26-1.73-1.95-2.91-1.4-1.01.47-2.12,1.22-2.89,2.44-1.19,1.88-1.09,4.31.06,6.22.98,1.64,2.55,4.79,4.13,10.1.52,1.75,1.15,3.47,1.85,5.16l9.59,23.01c.25.6,1.15.33,1.03-.31l-4.76-25.74s-1.5-9.26-3.85-13.81c-.92-1.79-1.69-3.65-2.23-5.59Z"/>
  </g>
</svg>